<svg width="25" height="24" viewBox="0 0 25 24" fill="none" xmlns="http://www.w3.org/2000/svg">
<rect width="24" height="24" transform="translate(0.5)" fill="black"/>
<path d="M21.7806 18.424C21.4328 19.2275 21.0211 19.9672 20.5441 20.6472C19.8939 21.5743 19.3615 22.216 18.9512 22.5724C18.3151 23.1573 17.6337 23.4568 16.9039 23.4739C16.3801 23.4739 15.7483 23.3248 15.0129 23.0224C14.2751 22.7214 13.597 22.5724 12.977 22.5724C12.3268 22.5724 11.6294 22.7214 10.8835 23.0224C10.1365 23.3248 9.53466 23.4824 9.07453 23.498C8.37475 23.5278 7.67725 23.2198 6.98102 22.5724C6.53665 22.1848 5.98084 21.5204 5.31499 20.5791C4.6006 19.5739 4.01326 18.4084 3.55313 17.0795C3.06035 15.6442 2.81332 14.2543 2.81332 12.9087C2.81332 11.3673 3.14639 10.0379 3.81351 8.92385C4.33781 8.02901 5.03531 7.32313 5.90829 6.80494C6.78127 6.28674 7.72453 6.02268 8.74033 6.00578C9.29614 6.00578 10.025 6.17771 10.9308 6.5156C11.834 6.85463 12.414 7.02656 12.6682 7.02656C12.8583 7.02656 13.5026 6.82552 14.5948 6.42474C15.6276 6.05306 16.4993 5.89916 17.2134 5.95979C19.1485 6.11595 20.6023 6.87876 21.5691 8.25304C19.8385 9.30164 18.9824 10.7703 18.9994 12.6544C19.0151 14.122 19.5474 15.3432 20.5938 16.3129C21.068 16.7629 21.5975 17.1107 22.1867 17.3578C22.0589 17.7283 21.924 18.0832 21.7806 18.424ZM17.3426 0.960138C17.3426 2.1104 16.9224 3.1844 16.0848 4.17848C15.0739 5.36024 13.8513 6.04312 12.5254 5.93537C12.5085 5.79737 12.4987 5.65213 12.4987 5.49952C12.4987 4.39527 12.9794 3.2135 13.8331 2.24725C14.2593 1.75801 14.8014 1.35123 15.4587 1.02672C16.1146 0.70706 16.735 0.53028 17.3185 0.500008C17.3355 0.65378 17.3426 0.807561 17.3426 0.960123V0.960138Z" fill="white"/>
</svg>
